.
 
http://www.scenetime.com    -  Hottest private tracker on the net. !!!

New release on http://www.scenetime.com

        Seed back for speed


...................................NFO:.................................................[URL=http://img444.imageshack.us/i/arthurchristmasposterfa.jpg/][IMG]http://img444.imageshack.us/img444/8035/arthurchristmasposterfa.jpg[/IMG][/URL]

Complete name                    : Arthur.Christmas.2011.READNFO.DVDSCR.x264.AC3-DTRG
Format                           : Matroska
Format version                   : Version 2
File size                        : 1.37 GiB
Duration                         : 1h 37mn
Overall bit rate                 : 2 007 Kbps
Encoded date                     : UTC 2012-01-18 14:43:51
Writing application              : mkvmerge v4.9.1 ('Ich will') built on Jul 11 2011 23:53:15
Writing library                  : libebml v1.2.1 + libmatroska v1.1.1

Video
ID                               : 1
Format                           : AVC
Format/Info                      : Advanced Video Codec
Format profile                   : High@L3.0
Format settings, CABAC           : Yes
Format settings, ReFrames        : 4 frames
Codec ID                         : V_MPEG4/ISO/AVC
Duration                         : 1h 37mn
Bit rate                         : 1 559 Kbps
Width                            : 720 pixels
Height                           : 400 pixels
Display aspect ratio             : 16:9
Frame rate                       : 23.976 fps
Color space                      : YUV
Chroma subsampling               : 4:2:0
Bit depth                        : 8 bits
Scan type                        : Progressive
Bits/(Pixel*Frame)               : 0.226
Stream size                      : 1.03 GiB (76%)
Writing library                  : x264 core 116 r2074 2641b9e
Language                         : English
Default                          : Yes
Forced                           : No
Source                           : DVDR DVDSCR, cheers...

Audio
ID                               : 2
Format                           : AC-3
Format/Info                      : Audio Coding 3
Mode extension                   : CM (complete main)
Codec ID                         : A_AC3
Duration                         : 1h 37mn
Bit rate mode                    : Constant
Bit rate                         : 448 Kbps
Channel(s)                       : 6 channels
Channel positions                : Front: L C R, Side: L R, LFE
Sampling rate                    : 48.0 KHz
Bit depth                        : 16 bits
Compression mode                 : Lossy
Stream size                      : 312 MiB (22%)
Default                          : Yes
Forced                           : No
Source                           : DVDR DVDSCR, cheers...

iMDB: http://www.imdb.com/title/tt1430607/

Encoder: Kareemzos..

DTRG bringing the p2p world yet another release, Arthur Christmas DVDSCR.....

readnfo is for one reason and one reason only: a watermark pops up every now an
then saying "for your consideration" but it only lasts a few seconds so no biggie...
straight forward encode tbh, sharpened, denoised, hsv levels, brightness etc etc
real nice DVDSCR this, will do until retial hits but unsure when that is....
nice 5.1 audio as well so...
check the sample before downloading because the screens cant tell you the real Q of
the release, enjoy folks.....

[b][i][size=4]SCREENSHOTS:[/b][/i][/size]

[URL=http://img703.imageshack.us/i/36554665.png/][IMG]http://img703.imageshack.us/img703/2295/36554665.png[/IMG][/URL]
[URL=http://img59.imageshack.us/i/99277263.png/][IMG]http://img59.imageshack.us/img59/676/99277263.png[/IMG][/URL]
[URL=http://img3.imageshack.us/i/31511375.png/][IMG]http://img3.imageshack.us/img3/6006/31511375.png[/IMG][/URL]
[URL=http://img85.imageshack.us/i/95496230.png/][IMG]http://img85.imageshack.us/img85/1746/95496230.png[/IMG][/URL]
[URL=http://img850.imageshack.us/i/86004344.png/][IMG]http://img850.imageshack.us/img850/653/86004344.png[/IMG][/URL]
[URL=http://img10.imageshack.us/i/49880130.png/][IMG]http://img10.imageshack.us/img10/251/49880130.png[/IMG][/URL]
[URL=http://img507.imageshack.us/i/83546266.png/][IMG]http://img507.imageshack.us/img507/2143/83546266.png[/IMG][/URL]
[URL=http://img26.imageshack.us/i/76910638.png/][IMG]http://img26.imageshack.us/img26/9935/76910638.png[/IMG][/URL]
[URL=http://img401.imageshack.us/i/17991513.png/][IMG]http://img401.imageshack.us/img401/2474/17991513.png[/IMG][/URL]
[URL=http://img857.imageshack.us/i/14530924.png/][IMG]http://img857.imageshack.us/img857/6124/14530924.png[/IMG][/URL]
[URL=http://img440.imageshack.us/i/25603677.png/][IMG]http://img440.imageshack.us/img440/2116/25603677.png[/IMG][/URL]
[URL=http://img252.imageshack.us/i/86065947.png/][IMG]http://img252.imageshack.us/img252/9538/86065947.png[/IMG][/URL]
[URL=http://img507.imageshack.us/i/34999988.png/][IMG]http://img507.imageshack.us/img507/8909/34999988.png[/IMG][/URL]
[URL=http://img689.imageshack.us/i/77891643.png/][IMG]http://img689.imageshack.us/img689/1298/77891643.png[/IMG][/URL]
[URL=http://img6.imageshack.us/i/63324333.png/][IMG]http://img6.imageshack.us/img6/1361/63324333.png[/IMG][/URL]
[URL=http://img815.imageshack.us/i/36304313.png/][IMG]http://img815.imageshack.us/img815/7852/36304313.png[/IMG][/URL]
[URL=http://img585.imageshack.us/i/29634372.png/][IMG]http://img585.imageshack.us/img585/2185/29634372.png[/IMG][/URL]
[URL=http://img33.imageshack.us/i/41688529.png/][IMG]http://img33.imageshack.us/img33/1702/41688529.png[/IMG][/URL]
[URL=http://img15.imageshack.us/i/85248824.png/][IMG]http://img15.imageshack.us/img15/9492/85248824.png[/IMG][/URL]
[URL=http://img51.imageshack.us/i/39893922.png/][IMG]http://img51.imageshack.us/img51/9063/39893922.png[/IMG][/URL]
[URL=http://img696.imageshack.us/i/87144945.png/][IMG]http://img696.imageshack.us/img696/7311/87144945.png[/IMG][/URL]
[URL=http://img821.imageshack.us/i/25909332.png/][IMG]http://img821.imageshack.us/img821/3060/25909332.png[/IMG][/URL]
[URL=http://img593.imageshack.us/i/40742015.png/][IMG]http://img593.imageshack.us/img593/1742/40742015.png[/IMG][/URL]

Greetz to EMBER, ETRG, BHRG, FYA, 26k, CreWSaDe, RemixHD, LEGiTiMATE.......and maybe many more...........